<svg xmlns="http://www.w3.org/2000/svg" width="96" height="96" fill="none"><rect width="96" height="96" fill="url(#a)" fill-opacity=".04" rx="16"/><rect width="96" height="96" fill="url(#b)" fill-opacity=".08" rx="16"/><rect width="96" height="96" fill="url(#c)" rx="16"/><rect width="95" height="95" x=".5" y=".5" stroke="#fff" stroke-opacity=".08" rx="15.5"/><g fill-rule="evenodd" clip-rule="evenodd" filter="url(#d)"><path fill="#9C80F4" d="M48 68c-3.163 0-6.206-.594-9.056-1.766l-8.484 1.653a2.002 2.002 0 0 1-2.302-2.526l1.752-5.973C27.349 56.039 26 52.124 26 48c0-11.028 9.869-20 22-20s22 8.972 22 20-9.869 20-22 20M38 46.007h20v-3.998H38v3.998Zm0 7.995h14v-3.998H38v3.998Z"/><path fill="url(#e)" d="M48 68c-3.163 0-6.206-.594-9.056-1.766l-8.484 1.653a2.002 2.002 0 0 1-2.302-2.526l1.752-5.973C27.349 56.039 26 52.124 26 48c0-11.028 9.869-20 22-20s22 8.972 22 20-9.869 20-22 20M38 46.007h20v-3.998H38v3.998Zm0 7.995h14v-3.998H38v3.998Z"/></g><defs><radialGradient id="b" cx="0" cy="0" r="1" gradientTransform="rotate(45) scale(67.8822 70.6072)" gradientUnits="userSpaceOnUse"><stop stop-color="#fff"/><stop offset="1" stop-color="#fff" stop-opacity=".24"/></radialGradient><radialGradient id="c" cx="0" cy="0" r="1" gradientTransform="matrix(0 -82.3644 89.879 0 48 141)" gradientUnits="userSpaceOnUse"><stop stop-color="#7034E4"/><stop offset="1" stop-color="#7034E4" stop-opacity="0"/></radialGradient><linearGradient id="a" x1="48" x2="48" y1="0" y2="96" gradientUnits="userSpaceOnUse"><stop stop-color="#fff"/><stop offset="1" stop-color="#fff" stop-opacity=".24"/></linearGradient><linearGradient id="e" x1="48" x2="48" y1="28" y2="68" gradientUnits="userSpaceOnUse"><stop stop-color="#fff"/><stop offset="1" stop-color="#fff" stop-opacity="0"/></linearGradient><filter id="d" width="52" height="48" x="22" y="28" color-interpolation-filters="sRGB" filterUnits="userSpaceOnUse"><feFlood flood-opacity="0" result="BackgroundImageFix"/><feColorMatrix in="SourceAlpha" result="hardAlpha" values="0 0 0 0 0 0 0 0 0 0 0 0 0 0 0 0 0 0 127 0"/><feOffset dy="4"/><feGaussianBlur stdDeviation="2"/><feComposite in2="hardAlpha" operator="out"/><feColorMatrix values="0 0 0 0 0 0 0 0 0 0 0 0 0 0 0 0 0 0 1 0"/><feBlend in2="BackgroundImageFix" result="effect1_dropShadow_399_682"/><feBlend in="SourceGraphic" in2="effect1_dropShadow_399_682" result="shape"/></filter></defs></svg>