<svg xmlns="http://www.w3.org/2000/svg" width="96" height="96" fill="none"><rect width="96" height="96" fill="url(#a)" fill-opacity=".04" rx="16"/><rect width="96" height="96" fill="url(#b)" fill-opacity=".08" rx="16"/><rect width="96" height="96" fill="url(#c)" rx="16"/><rect width="95" height="95" x=".5" y=".5" stroke="#fff" stroke-opacity=".08" rx="15.5"/><g fill-rule="evenodd" clip-rule="evenodd" filter="url(#d)"><path fill="#9C80F4" d="M40.073 34.12a8.848 8.848 0 0 0 1.64 1.866c.815.706 1.912 1.008 2.971 1.3.541.148 1.976.543 2.097.848.003.006.203.643-.97 2.59-.716 1.19-.82 3.075 1.031 4.793 1.512 1.405 4.348 2.627 6.941 2.627 1.244 0 2.434-.281 3.393-.96 1.545-1.095 2.257-.815 3.436-.351.811.319 2.018.792 3.35.41.011.254.038.503.038.758 0 2.213-.452 4.322-1.269 6.24-.073.026-.14.055-.224.068-.697.116-1.6-.203-2.619-.927-2.22-1.585-4.083-2.053-5.687-1.432-2.285.885-2.86 3.553-3.137 4.834-.186.862-.59 1.083-1.735 1.597-.434.195-.927.417-1.393.717-1.403.904-1.853 2.917-1.954 4.76a15.865 15.865 0 0 1-4.163-1.101c-.076-.592-.24-1.15-.36-1.554-.142-.47-.39-1.302-.383-1.7.061-.02.152-.045.282-.068 2.405-.413 3.993-2.193 4.146-4.644.183-2.941-1.743-6.735-4.904-7.695-1.067-.324-1.088-.33-.756-1.977.058-.287.114-.566.154-.833.177-1.191-.179-2.29-1.003-3.091-1.11-1.082-2.965-1.41-4.68-1.442a16.1 16.1 0 0 1 5.758-5.632M68 48c0-11.027-8.972-20-20-20-11.029 0-20 8.973-20 20 0 11.029 8.971 20 20 20 7.781 0 14.521-4.475 17.826-10.98.486-.406.517-1.07.517-1.07A19.873 19.873 0 0 0 68 48"/><path fill="url(#e)" d="M40.073 34.12a8.848 8.848 0 0 0 1.64 1.866c.815.706 1.912 1.008 2.971 1.3.541.148 1.976.543 2.097.848.003.006.203.643-.97 2.59-.716 1.19-.82 3.075 1.031 4.793 1.512 1.405 4.348 2.627 6.941 2.627 1.244 0 2.434-.281 3.393-.96 1.545-1.095 2.257-.815 3.436-.351.811.319 2.018.792 3.35.41.011.254.038.503.038.758 0 2.213-.452 4.322-1.269 6.24-.073.026-.14.055-.224.068-.697.116-1.6-.203-2.619-.927-2.22-1.585-4.083-2.053-5.687-1.432-2.285.885-2.86 3.553-3.137 4.834-.186.862-.59 1.083-1.735 1.597-.434.195-.927.417-1.393.717-1.403.904-1.853 2.917-1.954 4.76a15.865 15.865 0 0 1-4.163-1.101c-.076-.592-.24-1.15-.36-1.554-.142-.47-.39-1.302-.383-1.7.061-.02.152-.045.282-.068 2.405-.413 3.993-2.193 4.146-4.644.183-2.941-1.743-6.735-4.904-7.695-1.067-.324-1.088-.33-.756-1.977.058-.287.114-.566.154-.833.177-1.191-.179-2.29-1.003-3.091-1.11-1.082-2.965-1.41-4.68-1.442a16.1 16.1 0 0 1 5.758-5.632M68 48c0-11.027-8.972-20-20-20-11.029 0-20 8.973-20 20 0 11.029 8.971 20 20 20 7.781 0 14.521-4.475 17.826-10.98.486-.406.517-1.07.517-1.07A19.873 19.873 0 0 0 68 48"/></g><defs><radialGradient id="b" cx="0" cy="0" r="1" gradientTransform="rotate(45) scale(67.8822 70.6072)" gradientUnits="userSpaceOnUse"><stop stop-color="#fff"/><stop offset="1" stop-color="#fff" stop-opacity=".24"/></radialGradient><radialGradient id="c" cx="0" cy="0" r="1" gradientTransform="matrix(0 -82.3644 89.879 0 48 141)" gradientUnits="userSpaceOnUse"><stop stop-color="#7034E4"/><stop offset="1" stop-color="#7034E4" stop-opacity="0"/></radialGradient><linearGradient id="a" x1="48" x2="48" y1="0" y2="96" gradientUnits="userSpaceOnUse"><stop stop-color="#fff"/><stop offset="1" stop-color="#fff" stop-opacity=".24"/></linearGradient><linearGradient id="e" x1="48" x2="48" y1="28" y2="68.001" gradientUnits="userSpaceOnUse"><stop stop-color="#fff"/><stop offset="1" stop-color="#fff" stop-opacity="0"/></linearGradient><filter id="d" width="48" height="48.001" x="24" y="28" color-interpolation-filters="sRGB" filterUnits="userSpaceOnUse"><feFlood flood-opacity="0" result="BackgroundImageFix"/><feColorMatrix in="SourceAlpha" result="hardAlpha" values="0 0 0 0 0 0 0 0 0 0 0 0 0 0 0 0 0 0 127 0"/><feOffset dy="4"/><feGaussianBlur stdDeviation="2"/><feComposite in2="hardAlpha" operator="out"/><feColorMatrix values="0 0 0 0 0 0 0 0 0 0 0 0 0 0 0 0 0 0 1 0"/><feBlend in2="BackgroundImageFix" result="effect1_dropShadow_399_698"/><feBlend in="SourceGraphic" in2="effect1_dropShadow_399_698" result="shape"/></filter></defs></svg>