<svg xmlns="http://www.w3.org/2000/svg" width="96" height="96" fill="none"><rect width="96" height="96" fill="url(#a)" fill-opacity=".04" rx="16"/><rect width="96" height="96" fill="url(#b)" fill-opacity=".08" rx="16"/><rect width="96" height="96" fill="url(#c)" rx="16"/><rect width="95" height="95" x=".5" y=".5" stroke="#fff" stroke-opacity=".08" rx="15.5"/><g filter="url(#d)"><path fill="#9C80F4" d="M30 38a2 2 0 0 1 .94-1.696l16.003-10a2 2 0 0 1 2.12 0l15.991 10.01a2 2 0 0 1 .939 1.695L66 47.947a20.122 20.122 0 0 1-9.468 17.087l-7.47 4.663a2 2 0 0 1-2.118 0l-7.484-4.678A20.122 20.122 0 0 1 30 47.953V38Z"/><path fill="url(#e)" d="M30 38a2 2 0 0 1 .94-1.696l16.003-10a2 2 0 0 1 2.12 0l15.991 10.01a2 2 0 0 1 .939 1.695L66 47.947a20.122 20.122 0 0 1-9.468 17.087l-7.47 4.663a2 2 0 0 1-2.118 0l-7.484-4.678A20.122 20.122 0 0 1 30 47.953V38Z"/></g><defs><radialGradient id="b" cx="0" cy="0" r="1" gradientTransform="rotate(45) scale(67.8822 70.6072)" gradientUnits="userSpaceOnUse"><stop stop-color="#fff"/><stop offset="1" stop-color="#fff" stop-opacity=".24"/></radialGradient><radialGradient id="c" cx="0" cy="0" r="1" gradientTransform="matrix(0 -82.3644 89.879 0 48 141)" gradientUnits="userSpaceOnUse"><stop stop-color="#7034E4"/><stop offset="1" stop-color="#7034E4" stop-opacity="0"/></radialGradient><linearGradient id="a" x1="48" x2="48" y1="0" y2="96" gradientUnits="userSpaceOnUse"><stop stop-color="#fff"/><stop offset="1" stop-color="#fff" stop-opacity=".24"/></linearGradient><linearGradient id="e" x1="48" x2="48" y1="26" y2="70" gradientUnits="userSpaceOnUse"><stop stop-color="#fff"/><stop offset="1" stop-color="#fff" stop-opacity="0"/></linearGradient><filter id="d" width="44" height="52" x="26" y="26" color-interpolation-filters="sRGB" filterUnits="userSpaceOnUse"><feFlood flood-opacity="0" result="BackgroundImageFix"/><feColorMatrix in="SourceAlpha" result="hardAlpha" values="0 0 0 0 0 0 0 0 0 0 0 0 0 0 0 0 0 0 127 0"/><feOffset dy="4"/><feGaussianBlur stdDeviation="2"/><feComposite in2="hardAlpha" operator="out"/><feColorMatrix values="0 0 0 0 0 0 0 0 0 0 0 0 0 0 0 0 0 0 1 0"/><feBlend in2="BackgroundImageFix" result="effect1_dropShadow_399_673"/><feBlend in="SourceGraphic" in2="effect1_dropShadow_399_673" result="shape"/></filter></defs></svg>